<?xml version="1.0" encoding="utf-8"?>
<!-- Generator: Adobe Illustrator 22.0.1, SVG Export Plug-In . SVG Version: 6.00 Build 0)  -->
<svg version="1.1" id="Capa_1" xmlns="http://www.w3.org/2000/svg" xmlns:xlink="http://www.w3.org/1999/xlink" x="0px" y="0px"
	 viewBox="0 0 200 200" style="enable-background:new 0 0 200 200;" xml:space="preserve">
<style type="text/css">
	.st0{fill:#FFFFFF;}
</style>
<g>
	<g>
		<path class="st0" d="M178.3,177.8c6.6-18.7,16.2-47.1,15.9-68.8l0-17.4c-0.2-8.3-6.6-15-15.3-15c-2.5,0.2-4.9,0.5-6.8,1.7
			c-2.3-4.9-7.8-8.2-13.6-8.2c-1.8,0.1-3.8,0.6-5.5,1.4c-1.7-6.8-7.3-12-14.6-12.3c-1.8,0.1-3.6,0.2-5.2,0.9l0.2-22.5
			c0.1-4-1.6-7.9-4.5-10.8c-2.9-2.9-6.6-4.5-10.6-4.6c-8.3,0.2-15,6.6-15,15.3l0,70.2c0.2,0.7-0.1,1.1-0.3,1.5
			c-0.3,0.4-0.9,0.6-1.6,0.8c-0.7,0.2-1.5-0.3-1.7-1l-13-18.9c-4.4-6.1-13.2-8-19.3-3.5c-3.1,2.2-4.9,5.2-5.8,8.7
			c-0.5,3.7-0.1,6.9,2.1,10l15.7,32.7c0.4,0.3,0.2,0.7,0.6,0.9l32.5,40.5c0.4,0.3,0.6,0.9,1,1.2c0.9,0.5,2,0.6,2.4,0.9l57.5-0.1
			C175.6,181.4,177.5,180.2,178.3,177.8z M118.4,171.3L88,133.2l-15.3-32.4l-0.2-0.7c-1.2-1.9-0.8-4.5,1.1-5.7
			c1.9-1.2,4.5-0.8,5.7,1.1l13,18.9c2.2,3.1,5.6,5.1,9.6,5.2c6.5-0.2,12-5.5,11.9-12l0-70.2c0-2.9,2.4-4.9,4.9-5.2
			c1.1,0.1,2.6,0.4,3.7,1.6s1.6,2.1,1.3,3.7l0,36.6l0.1,10.5l0.1,4.7c0,2.9,2.3,4.9,5.2,4.9c2.9,0,4.9-2.3,4.9-5.2l-0.1-4.7
			l0.4-10.2c0-2.9,2.4-4.9,4.9-5.2c2.9,0,4.9,2.4,5.2,4.9L144,84.6l0.2,3.6l0.1,4.7c0.1,1.8,0.8,3.4,2.5,4.4
			c0.9,0.5,1.5,0.3,2.4,0.9c2.9,0,4.9-2.3,4.9-5.2l-0.1-4.7l-0.2-3.6c0-2.9,2.4-4.9,5.3-4.9s4.9,2.4,4.9,5.3l0.2,6.5l0,0l0,5.8
			l0.1,4.7c0,2.9,2.3,4.9,5.2,4.9s4.9-2.3,4.9-5.2l0.1-4l0-5.8c0-2.9,2.4-4.9,4.9-5.2c2.9,0,4.9,2.4,4.9,5.3l0,17.4
			c0,19.2-8.7,45.2-14.3,62.2L118.4,171.3z"/>
	</g>
	<g>
		<g>
			<path class="st0" d="M47.3,122.3c0,1.9-0.5,3.1-1.6,4.3l-15,17.3c-1.1,1.2-2.1,1.9-3.8,1.9s-2.7-0.6-3.8-1.9L7.6,126.7
				c-2.1-2.5-2.1-6.2,0-8.7c2.1-2.5,5.4-2.5,7.5,0l11.8,13.6l11.3-13c2.1-2.5,5.4-2.5,7.5,0C46.8,119.3,47.3,121.1,47.3,122.3z"/>
		</g>
		<g>
			<path class="st0" d="M32.3,44.6V127c0,3.7-2.1,6.2-5.4,6.2s-5.4-2.5-5.4-6.2V44.6c0-3.7,2.1-6.2,5.4-6.2S32.3,40.9,32.3,44.6z"/>
		</g>
	</g>
</g>
</svg>
