<?xml version="1.0" encoding="utf-8"?>
<!-- Generator: Adobe Illustrator 22.0.1, SVG Export Plug-In . SVG Version: 6.00 Build 0)  -->
<svg version="1.1" id="Capa_1" xmlns="http://www.w3.org/2000/svg" xmlns:xlink="http://www.w3.org/1999/xlink" x="0px" y="0px"
	 viewBox="0 0 200 200" style="enable-background:new 0 0 200 200;" xml:space="preserve">
<style type="text/css">
	.st0{fill:#FFFFFF;}
	.st1{fill:none;stroke:#FFFFFF;stroke-width:9;stroke-linecap:round;stroke-linejoin:round;stroke-miterlimit:10;}
</style>
<g>
	<g>
		<path class="st0" d="M138.8,192.9c8.8-18.8,21.7-47.4,23.6-70l1.8-18.1c0.6-8.6-5.4-16.3-14.4-17.2c-2.6,0-5.2,0-7.3,1.1
			c-1.9-5.3-7.3-9.3-13.4-9.9c-1.9-0.1-4.1,0.2-5.8,0.9c-1.1-7.3-6.4-13.2-14-14.3c-1.9-0.1-3.7-0.2-5.5,0.4l2.5-23.4
			c0.5-4.2-0.9-8.4-3.6-11.8c-2.7-3.3-6.4-5.4-10.5-5.9c-8.6-0.6-16.3,5.4-17.2,14.4l-7.2,73.2c0.1,0.7-0.2,1.1-0.5,1.6
			c-0.3,0.4-1,0.5-1.8,0.6c-0.7,0.1-1.6-0.5-1.7-1.2l-11.6-21c-4-6.9-12.9-9.6-19.8-5.7c-3.4,2-5.6,4.9-6.9,8.5
			c-0.9,3.9-0.8,7.2,1.2,10.6l13,35.7c0.4,0.3,0.1,0.7,0.5,1L70,187.7c0.4,0.3,0.5,1,0.9,1.4c0.8,0.6,2,0.8,2.4,1.1l60,5.7
			C135.6,196.3,137.7,195.3,138.8,192.9z M77,180l-27.8-42.8l-12.6-35.3l-0.1-0.7c-1-2.1-0.3-4.8,1.8-5.8c2.1-1,4.8-0.3,5.8,1.8
			l11.6,21c2,3.4,5.3,5.9,9.5,6.4c6.8,0.5,13.1-4.5,13.6-11.3L86,39.9c0.3-3,3-4.9,5.6-4.9c1.1,0.2,2.7,0.7,3.6,2.1
			c0.9,1.4,1.5,2.4,0.9,4l-3.7,38.1l-1,10.9L91,95c-0.3,3,1.9,5.3,4.9,5.6c3,0.3,5.3-1.9,5.6-4.9l0.4-4.9l1.4-10.6
			c0.3-3,3-4.9,5.6-4.9c3,0.3,4.9,3,4.9,5.6l-1.3,11.3l-0.2,3.7l-0.4,4.9c-0.1,1.9,0.5,3.6,2.2,4.9c0.8,0.6,1.6,0.5,2.4,1.1
			c3,0.3,5.3-1.9,5.6-4.9l0.4-4.9l0.2-3.7c0.3-3,3-4.9,6-4.6c3,0.3,4.9,3,4.6,6l-0.5,6.8l0,0l-0.6,6l-0.4,4.9
			c-0.3,3,1.9,5.3,4.9,5.6c3,0.3,5.3-1.9,5.6-4.9l0.5-4.2l0.6-6c0.3-3,3-4.9,5.6-4.9c3,0.3,4.9,3,4.6,6l-1.8,18.1
			c-1.9,20-13.7,46.3-21.2,63.4L77,180z"/>
	</g>
	<path class="st1" d="M126.1,39.6c0-19.2-15.6-34.8-34.8-34.8S56.5,20.4,56.5,39.6"/>
</g>
</svg>
