<?xml version="1.0" encoding="utf-8"?>
<!-- Generator: Adobe Illustrator 22.0.1, SVG Export Plug-In . SVG Version: 6.00 Build 0)  -->
<svg version="1.1" id="Capa_1" xmlns="http://www.w3.org/2000/svg" xmlns:xlink="http://www.w3.org/1999/xlink" x="0px" y="0px"
	 viewBox="0 0 200 200" style="enable-background:new 0 0 200 200;" xml:space="preserve">
<style type="text/css">
	.st0{fill:#FFFFFF;}
</style>
<g>
	<path class="st0" d="M190.9,152.7c-4.2-20.2-10.9-50.8-22.8-70l-9.3-15.6c-4.7-7.3-14-9.9-21.8-5.2c-2.1,1.6-4.2,3.1-5.2,5.2
		c-4.7-3.1-11.4-3.1-16.6,0c-1.6,1-3.1,2.6-4.2,4.2c-5.2-5.2-13-6.7-19.7-3.1c-1.6,1-3.1,2.1-4.2,3.6L75.2,51.5
		c-2.1-3.6-5.7-6.2-9.9-7.3c-4.2-1-8.3-0.5-11.9,1.6c-7.3,4.7-9.9,14-5.2,21.8l37.9,62.8c0.5,0.5,0.5,1,0.5,1.6c0,0.5-0.5,1-1,1.6
		s-1.6,0.5-2.1,0l-21.8-9.9c-7.3-3.1-16.1,0-19.2,7.3c-1.6,3.6-1.6,7.3-0.5,10.9c1.6,3.6,3.6,6.2,7.3,7.8l31.6,20.8
		c0.5,0,0.5,0.5,1,0.5l50.8,18.7c0.5,0,1,0.5,1.6,0.5c1,0,2.1-0.5,2.6-0.5l51.4-31.1C190.3,157.3,191.4,155.3,190.9,152.7z
		 M133.8,179.1l-47.7-17.6l-31.1-20.8l-0.5-0.5c-2.1-1-3.1-3.6-2.1-5.7c1-2.1,3.6-3.1,5.7-2.1l21.8,9.9c3.6,1.6,7.8,1.6,11.4-0.5
		c5.7-3.6,7.8-11.4,4.2-17.1L57.5,61.9c-1.6-2.6-0.5-5.7,1.6-7.3c1-0.5,2.6-1,4.2-0.5c1.6,0.5,2.6,1,3.1,2.6l19.7,32.7l5.7,9.3
		l2.6,4.2c1.6,2.6,4.7,3.1,7.3,1.6c2.6-1.6,3.1-4.7,1.6-7.3l-2.6-4.2l-5.2-9.3c-1.6-2.6-0.5-5.7,1.6-7.3c2.6-1.6,5.7-0.5,7.3,1.6
		l5.7,9.9l2.1,3.1l2.6,4.2c1,1.6,2.6,2.6,4.7,2.6c1,0,1.6-0.5,2.6-0.5c2.6-1.6,3.1-4.7,1.6-7.3l-2.6-4.2l-2.1-3.1
		c-1.6-2.6-0.5-5.7,2.1-7.3c2.6-1.6,5.7-0.5,7.3,2.1l3.6,5.7l0,0l3.1,5.2l2.6,4.2c1.6,2.6,4.7,3.1,7.3,1.6c2.6-1.6,3.1-4.7,1.6-7.3
		l-2.1-3.6l-3.1-5.2c-1.6-2.6-0.5-5.7,1.6-7.3c2.6-1.6,5.7-0.5,7.3,2.1l9.3,15.6c10.4,17.1,16.6,45.1,20.8,63.3L133.8,179.1z"/>
</g>
<g>
	<path class="st0" d="M117.7,14.1c-0.5,2.6-3.6,4.7-6.2,3.6C79.8,10,51.3,23,24.9,57.2l7.8-1.6c2.6-0.5,5.7,1,6.2,4.2
		c0.5,3.1-1,5.7-4.2,6.2l-20.2,4.2c-0.5,0-0.5,0-1,0c-2.6,0-4.7-1.6-5.2-4.2L4.1,45.8c-0.5-2.6,1-5.7,4.2-6.2c2.6-0.5,5.7,1,6.2,4.2
		L16,52C45.1,14.1,78.3-0.9,114.1,7.9C116.7,8.4,118.2,11.5,117.7,14.1z"/>
</g>
</svg>
