<?xml version="1.0" encoding="utf-8"?>
<!-- Generator: Adobe Illustrator 22.0.1, SVG Export Plug-In . SVG Version: 6.00 Build 0)  -->
<svg version="1.1" id="Capa_1" xmlns="http://www.w3.org/2000/svg" xmlns:xlink="http://www.w3.org/1999/xlink" x="0px" y="0px"
	 viewBox="0 0 200 200" style="enable-background:new 0 0 200 200;" xml:space="preserve">
<style type="text/css">
	.st0{fill:#FFFFFF;}
</style>
<g>
	<path class="st0" d="M122.5,2.8c-4.7,0-8.4,3.8-8.4,8.4v68c0,4.7,3.8,8.4,8.4,8.4h68c4.7,0,8.4-3.8,8.4-8.4
		C199,37.1,164.7,2.9,122.5,2.8z M131,70.9V20.3c26.3,3.8,46.9,24.4,50.7,50.7L131,70.9z"/>
	<path class="st0" d="M92.1,196c48.5-0.1,87.8-39.3,87.8-87.8c0-4.7-3.8-8.4-8.4-8.4h-70.9v-71c0-4.7-3.8-8.4-8.4-8.4
		c-48.5,0-87.8,39.3-87.8,87.8S43.6,196,92.1,196z M83.7,37.7v70.5c0,4.7,3.8,8.4,8.4,8.4h70.4c-4.7,38.9-40,66.7-78.9,62
		c-38.9-4.7-66.7-40-62-78.9C25.5,67.2,51.2,41.6,83.7,37.7L83.7,37.7z"/>
</g>
</svg>
