<?xml version="1.0" encoding="utf-8"?>
<!-- Generator: Adobe Illustrator 22.0.1, SVG Export Plug-In . SVG Version: 6.00 Build 0)  -->
<svg version="1.1" id="Capa_1" xmlns="http://www.w3.org/2000/svg" xmlns:xlink="http://www.w3.org/1999/xlink" x="0px" y="0px"
	 viewBox="0 0 200 200" style="enable-background:new 0 0 200 200;" xml:space="preserve">
<style type="text/css">
	.st0{fill:#FFFFFF;}
</style>
<g>
	<g>
		<path class="st0" d="M55.8,195.3c19.5-6.6,49-16.9,66.5-31.1l14.3-11.1c6.6-5.5,8.1-15.1,2.5-22.2c-1.8-1.9-3.6-3.7-5.8-4.5
			c2.5-5,1.7-11.7-2-16.4c-1.2-1.4-2.9-2.8-4.6-3.6c4.5-5.8,5.1-13.6,0.7-19.9c-1.2-1.4-2.4-2.8-4.1-3.7l18.6-14.3
			c3.3-2.5,5.5-6.4,6-10.6c0.5-4.2-0.5-8.3-3-11.6c-5.5-6.6-15.1-8.1-22.2-2.5L65.2,88.9c-0.5,0.6-1,0.6-1.5,0.7
			c-0.5,0.1-1.1-0.4-1.7-0.8c-0.6-0.5-0.7-1.5-0.3-2.1L68.9,64c2.2-7.6-1.9-15.9-9.5-18.1c-3.8-1.1-7.4-0.7-10.8,0.8
			c-3.4,2-5.7,4.3-6.8,8.1L25,88.6c0.1,0.5-0.5,0.6-0.4,1.1l-12.3,52.6c0.1,0.5-0.4,1.1-0.3,1.6c0.1,1,0.8,2,0.8,2.5l37,47
			C51.1,195.4,53.3,196.1,55.8,195.3z M22.7,142.1l11.7-49.4l16.8-33.3l0.5-0.6c0.8-2.2,3.2-3.5,5.4-2.7c2.2,0.8,3.5,3.2,2.7,5.4
			l-7.1,22.8c-1.1,3.8-0.6,7.9,1.9,11.2c4.3,5.2,12.2,6.3,17.4,2l57.5-45.1c2.4-1.9,5.6-1.2,7.4,0.7c0.6,1,1.3,2.4,1,4
			c-0.3,1.6-0.7,2.7-2.2,3.4L105.7,84l-8.5,6.8l-3.8,3.1c-2.4,1.9-2.5,5-0.7,7.4c1.9,2.4,5,2.5,7.4,0.7l3.8-3.1l8.6-6.3
			c2.4-1.9,5.6-1.2,7.4,0.7c1.9,2.4,1.2,5.6-0.7,7.4l-9.1,6.8l-2.8,2.4l-3.8,3.1c-1.4,1.2-2.3,2.9-2,4.9c0.1,1,0.7,1.5,0.8,2.5
			c1.9,2.4,5,2.5,7.4,0.7l3.8-3.1l2.8-2.4c2.4-1.9,5.6-1.2,7.4,1.2c1.9,2.4,1.2,5.6-1.2,7.4l-5.2,4.3l0,0l-4.8,3.7l-3.8,3.1
			c-2.4,1.9-2.5,5-0.7,7.4c1.9,2.4,5,2.5,7.4,0.7l3.3-2.5l4.8-3.7c2.4-1.9,5.6-1.2,7.4,0.7c1.9,2.4,1.2,5.6-1.2,7.4l-14.3,11.1
			c-15.7,12.3-42.6,21.9-60.1,28.2L22.7,142.1z"/>
	</g>
	<g>
		<path class="st0" d="M84.2,8.4c35.7-8.8,68.8,6.2,97.7,44l1.6-8.3c0.5-3.1,3.6-4.7,6.2-4.1c3.1,0.5,4.7,3.6,4.1,6.2l-4.1,20.2
			c-0.5,2.6-2.6,4.1-5.2,4.1c-0.5,0-0.5,0-1,0l-20.2-4.1c-3.1-0.5-4.7-3.1-4.1-6.2c0.5-3.1,3.6-4.7,6.2-4.1l7.8,1.6
			c-26.4-34.1-54.8-47.1-86.4-39.3c-2.6,1-5.7-1-6.2-3.6S81.6,9,84.2,8.4z"/>
	</g>
</g>
</svg>
